<?xml version="1.0"?>
<svg xmlns="http://www.w3.org/2000/svg" id="Layer_1" data-name="Layer 1" viewBox="0 0 64 64"><title>Dusk Part 3</title><polygon points="59 23 47 13 47 16 51 20 51 31 59 31 59 23" style="fill:#c2cde7;"/><path d="M15,5H37a6,6,0,0,1,6,6V49a0,0,0,0,1,0,0H9a0,0,0,0,1,0,0V11A6,6,0,0,1,15,5Z" style="fill:#ed7899;"/><path d="M42.19,8A6,6,0,0,0,37,5H15A6,6,0,0,0,9.81,8Z" style="fill:#f994b3;"/><rect x="7" y="49" width="38" height="10" rx="2" ry="2" style="fill:#f9dd8f;"/><path d="M11,54H41a4,4,0,0,1,4,4v0a1,1,0,0,1-1,1H8a1,1,0,0,1-1-1v0A4,4,0,0,1,11,54Z" style="fill:#f5c872;"/><rect x="15" y="11" width="22" height="14" style="fill:#c5e4fa;"/><polygon points="25 25 37 25 37 11 34.88 11 25 25" style="fill:#e3f2ff;"/><polygon points="22 25 32 11 26 11 16 25 22 25" style="fill:#e3f2ff;"/><polygon points="21 11 15 21 15 23 23 11 21 11" style="fill:#e3f2ff;"/><path d="M35,10H17a3,3,0,0,0-3,3V25a1,1,0,0,0,1,1H37a1,1,0,0,0,1-1V13A3,3,0,0,0,35,10Zm1,14H27.87l3-4.45a1,1,0,0,0-1.66-1.11L25.46,24H16V13a1,1,0,0,1,1-1H35a1,1,0,0,1,1,1Z" style="fill:#8d6c9f;"/><path d="M29,28H15a1,1,0,0,0,0,2H29a1,1,0,0,0,0-2Z" style="fill:#8d6c9f;"/><path d="M37,28H33a1,1,0,0,0,0,2h4a1,1,0,0,0,0-2Z" style="fill:#8d6c9f;"/><path d="M11,52a1,1,0,0,0-1,1v2a1,1,0,0,0,2,0V53A1,1,0,0,0,11,52Z" style="fill:#8d6c9f;"/><path d="M16,52a1,1,0,0,0-1,1v2a1,1,0,0,0,2,0V53A1,1,0,0,0,16,52Z" style="fill:#8d6c9f;"/><path d="M21,52a1,1,0,0,0-1,1v2a1,1,0,0,0,2,0V53A1,1,0,0,0,21,52Z" style="fill:#8d6c9f;"/><path d="M26,52a1,1,0,0,0-1,1v2a1,1,0,0,0,2,0V53A1,1,0,0,0,26,52Z" style="fill:#8d6c9f;"/><path d="M31,52a1,1,0,0,0-1,1v2a1,1,0,0,0,2,0V53A1,1,0,0,0,31,52Z" style="fill:#8d6c9f;"/><path d="M36,52a1,1,0,0,0-1,1v2a1,1,0,0,0,2,0V53A1,1,0,0,0,36,52Z" style="fill:#8d6c9f;"/><path d="M41,52a1,1,0,0,0-1,1v2a1,1,0,0,0,2,0V53A1,1,0,0,0,41,52Z" style="fill:#8d6c9f;"/><path d="M58.54,22.12,49.41,13A2,2,0,0,0,46,14.41v1.34a4,4,0,0,0,1.17,2.83l2.54,2.54a1,1,0,0,1,.29.71V29a3,3,0,0,0,3,3h1V50a2,2,0,0,1-4,0V38a4,4,0,0,0-4-4H44V11a7,7,0,0,0-7-7H15a7,7,0,0,0-7,7V48.18A3,3,0,0,0,6,51v7H3a1,1,0,0,0,0,2H49a1,1,0,0,0,0-2H46V51a3,3,0,0,0-2-2.82V36h2a2,2,0,0,1,2,2V50a4,4,0,0,0,8,0V32h1a3,3,0,0,0,3-3V25.66A5,5,0,0,0,58.54,22.12ZM10,11a5,5,0,0,1,5-5H37a5,5,0,0,1,5,5V48H10ZM8,58V51a1,1,0,0,1,1-1H43a1,1,0,0,1,1,1v7ZM58,29a1,1,0,0,1-1,1H53a1,1,0,0,1-1-1V21.83a3,3,0,0,0-.88-2.12l-2.54-2.54A2,2,0,0,1,48,15.76V14.41l9.12,9.12A3,3,0,0,1,58,25.66Z" style="fill:#8d6c9f;"/><path d="M55,24a1,1,0,0,0-1,1v2a1,1,0,0,0,2,0V25A1,1,0,0,0,55,24Z" style="fill:#8d6c9f;"/></svg>
