<?xml version="1.0" encoding="iso-8859-1"?>
<!-- Generator: Adobe Illustrator 19.0.0, SVG Export Plug-In . SVG Version: 6.00 Build 0)  -->
<svg version="1.1" id="Layer_1" xmlns="http://www.w3.org/2000/svg" xmlns:xlink="http://www.w3.org/1999/xlink" x="0px" y="0px"
	 viewBox="0 0 512 512" style="enable-background:new 0 0 512 512;" xml:space="preserve">
<g>
	<g>
		<g>
			<path d="M375.141,3.65c-15.057-5.48-31.348-4.77-45.872,2.004c-14.523,6.773-25.539,18.794-31.02,33.852l-66.013,181.368
				c-26.647,2.009-52.131,11.263-74.004,26.925c-23.913,17.121-41.888,40.831-51.984,68.569
				c-13.312,36.575-11.585,76.145,4.865,111.422c16.45,35.276,45.651,62.035,82.226,75.347c16.266,5.92,33.118,8.866,49.926,8.865
				c20.989-0.001,41.907-4.595,61.495-13.729c35.276-16.449,62.035-45.651,75.346-82.227c10.094-27.736,11.566-57.453,4.255-85.937
				c-6.689-26.056-20.259-49.525-39.38-68.193l13.078-35.932c0.281-0.455,0.534-0.93,0.724-1.452c0.198-0.545,0.33-1.098,0.405-1.65
				l12.641-34.729c0.001-0.004,0.003-0.007,0.005-0.012c0.002-0.006,0.004-0.013,0.005-0.019l13.211-36.299
				c0.001-0.004,0.003-0.007,0.005-0.011c0.002-0.006,0.003-0.013,0.005-0.018l13.212-36.3c0.001-0.003,0.003-0.007,0.005-0.011
				c0.002-0.005,0.003-0.012,0.005-0.018l12.711-34.923C422.309,49.457,406.224,14.963,375.141,3.65z M346.395,211.564
				l-13.461-4.899l7.786-21.393l13.461,4.899L346.395,211.564z M396.061,75.107l-10,27.473l-35.198-12.811
				c-4.127-1.502-8.685,0.625-10.185,4.75c-1.501,4.124,0.626,8.684,4.749,10.185l35.198,12.811l-7.786,21.393l-35.198-12.811
				c-4.13-1.501-8.685,0.626-10.185,4.75c-1.501,4.124,0.626,8.684,4.749,10.185l35.198,12.811l-7.786,21.393l-26.006-9.466
				c-0.001,0-0.003-0.001-0.004-0.002l-30.871-11.235c-3.352-1.22-6.98-1.062-10.213,0.445c-3.234,1.508-5.685,4.184-6.906,7.535
				l-35.447,97.39c-21.279-1.387-42.828,3.735-61.313,14.678c-20.616,12.207-36.673,31.272-45.208,53.683
				c-10.089,26.487-9.211,55.424,2.472,81.479c11.686,26.062,32.711,45.957,59.203,56.021c12.326,4.681,25.135,7.014,37.913,7.014
				c15.089-0.001,30.132-3.253,44.276-9.728c26.126-11.961,45.927-33.418,55.753-60.417c8.313-22.839,8.547-48.053,0.659-70.996
				c-7.072-20.572-20.375-38.598-37.784-51.364l21.356-58.674l13.461,4.899l-12.701,34.895c-1.104,3.033-0.263,6.434,2.129,8.603
				c39.259,35.614,52.912,90.807,34.785,140.611c-11.859,32.586-35.7,58.603-67.129,73.258
				c-31.427,14.655-66.682,16.195-99.269,4.333c-32.586-11.86-58.603-35.7-73.258-67.129s-16.195-66.683-4.335-99.269
				c18.128-49.805,64.068-83.309,117.038-85.354c3.226-0.125,6.056-2.189,7.16-5.223l67.803-186.284
				c4.028-11.069,12.126-19.906,22.802-24.884c5.929-2.764,12.258-4.154,18.611-4.154c5.086,0,10.187,0.891,15.109,2.683
				C392.554,26.901,404.378,52.257,396.061,75.107z M305.76,213.688l6.802,2.476l-23.459,64.451
				c-1.269,3.489,0.047,7.393,3.169,9.402c17.003,10.932,30.009,27.549,36.623,46.787c6.709,19.513,6.509,40.962-0.565,60.393
				c-8.361,22.971-25.206,41.225-47.434,51.402c-22.223,10.176-47.057,10.995-69.929,2.308
				c-22.518-8.554-40.398-25.482-50.345-47.665c-9.946-22.181-10.699-46.799-2.121-69.32c13.549-35.574,47.273-58.376,84.459-58.376
				c3.825,0,7.692,0.243,11.572,0.735c3.682,0.468,7.201-1.675,8.47-5.165l36.682-100.781l19.295,7.023
				c0.001,0,0.002,0.001,0.003,0.001l6.802,2.476l-7.786,21.393l-6.801-2.476c-4.125-1.501-8.685,0.626-10.185,4.75
				C299.51,207.627,301.638,212.187,305.76,213.688z"/>
			<path d="M306.609,389.49c0.897,0.326,1.815,0.481,2.717,0.481c3.246,0,6.294-2.004,7.469-5.231l3.137-8.619
				c1.501-4.124-0.626-8.684-4.749-10.185c-4.127-1.501-8.685,0.626-10.185,4.75l-3.137,8.619
				C300.359,383.428,302.485,387.989,306.609,389.49z"/>
			<path d="M272.435,384.063c-4.126-1.503-8.683,0.625-10.185,4.749c-1.671,4.588-6.761,6.963-11.348,5.293
				c-2.223-0.808-3.998-2.435-4.997-4.578s-1.104-4.547-0.296-6.769c0.327-0.898,0.482-1.817,0.482-2.72
				c-0.001-3.245-2.005-6.291-5.231-7.464c-4.122-1.503-8.684,0.624-10.185,4.749c-1.671,4.588-6.762,6.961-11.349,5.292
				c-4.588-1.67-6.961-6.761-5.291-11.349c1.501-4.124-0.625-8.684-4.75-10.185c-4.124-1.501-8.685,0.625-10.185,4.75
				c-4.667,12.822,1.969,27.052,14.791,31.718c6.083,2.214,12.483,1.884,18.031-0.444c2.855,5.566,7.633,9.785,13.544,11.937
				c2.784,1.014,5.634,1.494,8.438,1.494c10.111,0,19.626-6.246,23.281-16.284C278.685,390.125,276.56,385.564,272.435,384.063z"/>
			<path d="M188.189,319.713c-4.124-1.502-8.684,0.625-10.185,4.75l-3.137,8.619c-1.5,4.124,0.625,8.684,4.75,10.185
				c0.897,0.326,1.815,0.481,2.717,0.481c3.245,0,6.293-2.004,7.468-5.231l3.137-8.619
				C194.441,325.775,192.314,321.215,188.189,319.713z"/>
		</g>
	</g>
</g>
<g>
</g>
<g>
</g>
<g>
</g>
<g>
</g>
<g>
</g>
<g>
</g>
<g>
</g>
<g>
</g>
<g>
</g>
<g>
</g>
<g>
</g>
<g>
</g>
<g>
</g>
<g>
</g>
<g>
</g>
</svg>
